<svg width="195" height="26" viewBox="0 0 195 26" fill="none" xmlns="http://www.w3.org/2000/svg">
<path d="M6.02 19V3.88H0.476V0.967999H15.316V3.88H9.8V19H6.02ZM20.7694 19.28C19.1828 19.28 17.9414 18.8413 17.0454 17.964C16.1681 17.068 15.7294 15.7613 15.7294 14.044V5.728H19.5094V13.96C19.5094 14.856 19.7241 15.5093 20.1534 15.92C20.5828 16.312 21.2268 16.508 22.0854 16.508C22.7388 16.508 23.3361 16.3773 23.8774 16.116C24.4374 15.8547 24.9134 15.528 25.3054 15.136V5.728H29.0854V19H25.5854L25.4454 17.74C24.8854 18.188 24.2228 18.5613 23.4574 18.86C22.7108 19.14 21.8148 19.28 20.7694 19.28ZM32.303 19V5.728H35.803L35.971 7.1C36.5684 6.72667 37.3057 6.39067 38.183 6.092C39.079 5.77467 39.9564 5.56 40.815 5.448V8.304C40.311 8.37867 39.7604 8.49067 39.163 8.64C38.5657 8.78933 37.9964 8.95733 37.455 9.144C36.9137 9.33067 36.4564 9.52667 36.083 9.732V19H32.303ZM55.6135 25.776C54.3255 25.776 53.3548 25.4587 52.7015 24.824C52.0668 24.1893 51.7495 23.2 51.7495 21.856V18.272C50.7228 18.944 49.4535 19.28 47.9415 19.28C46.0188 19.28 44.4881 18.748 43.3495 17.684C42.2108 16.6013 41.6415 14.8653 41.6415 12.476C41.6415 10.8707 41.9028 9.55467 42.4255 8.528C42.9481 7.48267 43.6668 6.708 44.5815 6.204C45.5148 5.7 46.5788 5.448 47.7735 5.448C48.7068 5.448 49.5095 5.57867 50.1815 5.84C50.8535 6.10133 51.4788 6.47467 52.0575 6.96L52.2815 5.728H55.5295V21.492C55.5295 22.0333 55.6321 22.4067 55.8375 22.612C56.0428 22.836 56.4068 22.948 56.9295 22.948C57.1348 22.948 57.3308 22.9293 57.5175 22.892C57.7041 22.8547 57.8908 22.808 58.0775 22.752V25.356C57.7041 25.4867 57.3308 25.5893 56.9575 25.664C56.6028 25.7387 56.1548 25.776 55.6135 25.776ZM48.8935 16.508C49.5468 16.508 50.0881 16.4147 50.5175 16.228C50.9655 16.0413 51.3761 15.7987 51.7495 15.5V9.424C51.3388 9.01333 50.9001 8.71467 50.4335 8.528C49.9668 8.32267 49.4348 8.22 48.8375 8.22C47.6801 8.22 46.8308 8.56533 46.2895 9.256C45.7481 9.94667 45.4775 11.0013 45.4775 12.42C45.4775 13.8947 45.7668 14.9493 46.3455 15.584C46.9241 16.2 47.7735 16.508 48.8935 16.508ZM63.3163 19.28C61.7296 19.28 60.4883 18.8413 59.5923 17.964C58.715 17.068 58.2763 15.7613 58.2763 14.044V5.728H62.0563V13.96C62.0563 14.856 62.271 15.5093 62.7003 15.92C63.1296 16.312 63.7736 16.508 64.6323 16.508C65.2856 16.508 65.883 16.3773 66.4243 16.116C66.9843 15.8547 67.4603 15.528 67.8523 15.136V5.728H71.6323V19H68.1323L67.9923 17.74C67.4323 18.188 66.7696 18.5613 66.0043 18.86C65.2576 19.14 64.3616 19.28 63.3163 19.28ZM81.7659 19.28C79.4699 19.28 77.6499 18.7107 76.3059 17.572C74.9619 16.4147 74.2899 14.6693 74.2899 12.336C74.2899 10.2267 74.8499 8.556 75.9699 7.324C77.1086 6.07333 78.7979 5.448 81.0379 5.448C83.0912 5.448 84.6592 5.98933 85.7419 7.072C86.8432 8.136 87.3939 9.536 87.3939 11.272V13.68H77.7899C77.9952 14.744 78.4806 15.472 79.2459 15.864C80.0299 16.256 81.1312 16.452 82.5499 16.452C83.2592 16.452 83.9779 16.3867 84.7059 16.256C85.4526 16.1253 86.0872 15.9573 86.6099 15.752V18.44C85.9939 18.72 85.2752 18.9253 84.4539 19.056C83.6326 19.2053 82.7366 19.28 81.7659 19.28ZM77.7899 11.356H84.0899V10.628C84.0899 9.86267 83.8659 9.26533 83.4179 8.836C82.9699 8.388 82.2139 8.164 81.1499 8.164C79.8992 8.164 79.0219 8.416 78.5179 8.92C78.0326 9.424 77.7899 10.236 77.7899 11.356ZM94.565 19.28C93.5756 19.28 92.633 19.2053 91.737 19.056C90.841 18.9253 90.1223 18.7573 89.581 18.552V15.416C90.2343 15.6773 90.9716 15.8827 91.793 16.032C92.6143 16.1627 93.3703 16.228 94.061 16.228C94.9943 16.228 95.6476 16.172 96.021 16.06C96.413 15.948 96.609 15.696 96.609 15.304C96.609 14.856 96.3103 14.5293 95.713 14.324C95.1343 14.1187 94.2663 13.8293 93.109 13.456C91.8956 13.0453 90.9623 12.5507 90.309 11.972C89.6556 11.3933 89.329 10.5347 89.329 9.396C89.329 8.12667 89.7863 7.156 90.701 6.484C91.6343 5.79333 93.1276 5.448 95.181 5.448C96.0023 5.448 96.777 5.51333 97.505 5.644C98.233 5.756 98.849 5.896 99.353 6.064V9.172C98.849 8.92933 98.2703 8.752 97.617 8.64C96.9636 8.50933 96.357 8.444 95.797 8.444C94.9943 8.444 94.3503 8.5 93.865 8.612C93.3983 8.724 93.165 8.96667 93.165 9.34C93.165 9.75067 93.417 10.04 93.921 10.208C94.4436 10.376 95.2463 10.628 96.329 10.964C97.393 11.2813 98.2236 11.6267 98.821 12C99.4183 12.3733 99.8383 12.8213 100.081 13.344C100.324 13.848 100.445 14.4827 100.445 15.248C100.445 17.936 98.485 19.28 94.565 19.28ZM106.831 19.28C105.991 19.28 105.207 19.1307 104.479 18.832C103.769 18.5147 103.191 18.0573 102.743 17.46C102.313 16.844 102.099 16.0787 102.099 15.164C102.099 13.8573 102.556 12.812 103.471 12.028C104.404 11.244 105.776 10.852 107.587 10.852H111.507V10.488C111.507 9.66667 111.273 9.088 110.807 8.752C110.359 8.416 109.444 8.248 108.062 8.248C106.551 8.248 105.095 8.48133 103.695 8.948V6.288C104.311 6.04533 105.057 5.84933 105.935 5.7C106.831 5.532 107.801 5.448 108.847 5.448C110.844 5.448 112.384 5.85867 113.467 6.68C114.568 7.48267 115.119 8.78 115.119 10.572V19H111.843L111.647 17.796C111.124 18.2627 110.48 18.6267 109.715 18.888C108.949 19.1493 107.988 19.28 106.831 19.28ZM107.867 16.788C108.707 16.788 109.435 16.648 110.051 16.368C110.667 16.088 111.152 15.7333 111.507 15.304V13.204H107.671C106.196 13.204 105.459 13.8107 105.459 15.024C105.459 16.2 106.261 16.788 107.867 16.788ZM118.162 19V0.967999H127.29C129.101 0.967999 130.445 1.39733 131.322 2.256C132.218 3.096 132.666 4.29067 132.666 5.84C132.666 6.81067 132.48 7.62267 132.106 8.276C131.733 8.91067 131.229 9.40533 130.594 9.76C131.434 10.0213 132.097 10.46 132.582 11.076C133.086 11.6733 133.338 12.56 133.338 13.736C133.338 15.472 132.844 16.788 131.854 17.684C130.884 18.5613 129.474 19 127.626 19H118.162ZM121.942 8.444H126.59C127.505 8.444 128.158 8.248 128.55 7.856C128.942 7.44533 129.138 6.876 129.138 6.148C129.138 5.34533 128.933 4.748 128.522 4.356C128.13 3.964 127.393 3.768 126.31 3.768H121.942V8.444ZM121.942 16.228H126.73C127.682 16.228 128.382 16.032 128.83 15.64C129.278 15.248 129.502 14.5573 129.502 13.568C129.502 12.7653 129.278 12.168 128.83 11.776C128.401 11.384 127.617 11.188 126.478 11.188H121.942V16.228ZM142.599 19.28C140.117 19.28 138.297 18.6827 137.139 17.488C135.982 16.2747 135.403 14.5667 135.403 12.364C135.403 10.1613 135.982 8.46267 137.139 7.268C138.315 6.05467 140.135 5.448 142.599 5.448C145.082 5.448 146.902 6.05467 148.059 7.268C149.235 8.46267 149.823 10.1613 149.823 12.364C149.823 14.5667 149.245 16.2747 148.087 17.488C146.93 18.6827 145.101 19.28 142.599 19.28ZM142.599 16.06C143.813 16.06 144.681 15.7893 145.203 15.248C145.726 14.688 145.987 13.7267 145.987 12.364C145.987 11.0013 145.726 10.0493 145.203 9.508C144.681 8.948 143.813 8.668 142.599 8.668C141.405 8.668 140.546 8.948 140.023 9.508C139.501 10.0493 139.239 11.0013 139.239 12.364C139.239 13.7267 139.501 14.688 140.023 15.248C140.546 15.7893 141.405 16.06 142.599 16.06ZM159.087 19.28C156.605 19.28 154.785 18.6827 153.627 17.488C152.47 16.2747 151.891 14.5667 151.891 12.364C151.891 10.1613 152.47 8.46267 153.627 7.268C154.803 6.05467 156.623 5.448 159.087 5.448C161.57 5.448 163.39 6.05467 164.547 7.268C165.723 8.46267 166.311 10.1613 166.311 12.364C166.311 14.5667 165.733 16.2747 164.575 17.488C163.418 18.6827 161.589 19.28 159.087 19.28ZM159.087 16.06C160.301 16.06 161.169 15.7893 161.691 15.248C162.214 14.688 162.475 13.7267 162.475 12.364C162.475 11.0013 162.214 10.0493 161.691 9.508C161.169 8.948 160.301 8.668 159.087 8.668C157.893 8.668 157.034 8.948 156.511 9.508C155.989 10.0493 155.727 11.0013 155.727 12.364C155.727 13.7267 155.989 14.688 156.511 15.248C157.034 15.7893 157.893 16.06 159.087 16.06ZM168.94 19V0.127999H172.72V10.516L177.676 5.728H181.988L176.64 11.16L182.296 19H178.292L174.26 13.148L172.72 14.632V19H168.94ZM188.436 19.28C187.447 19.28 186.504 19.2053 185.608 19.056C184.712 18.9253 183.993 18.7573 183.452 18.552V15.416C184.105 15.6773 184.843 15.8827 185.664 16.032C186.485 16.1627 187.241 16.228 187.932 16.228C188.865 16.228 189.519 16.172 189.892 16.06C190.284 15.948 190.48 15.696 190.48 15.304C190.48 14.856 190.181 14.5293 189.584 14.324C189.005 14.1187 188.137 13.8293 186.98 13.456C185.767 13.0453 184.833 12.5507 184.18 11.972C183.527 11.3933 183.2 10.5347 183.2 9.396C183.2 8.12667 183.657 7.156 184.572 6.484C185.505 5.79333 186.999 5.448 189.052 5.448C189.873 5.448 190.648 5.51333 191.376 5.644C192.104 5.756 192.72 5.896 193.224 6.064V9.172C192.72 8.92933 192.141 8.752 191.488 8.64C190.835 8.50933 190.228 8.444 189.668 8.444C188.865 8.444 188.221 8.5 187.736 8.612C187.269 8.724 187.036 8.96667 187.036 9.34C187.036 9.75067 187.288 10.04 187.792 10.208C188.315 10.376 189.117 10.628 190.2 10.964C191.264 11.2813 192.095 11.6267 192.692 12C193.289 12.3733 193.709 12.8213 193.952 13.344C194.195 13.848 194.316 14.4827 194.316 15.248C194.316 17.936 192.356 19.28 188.436 19.28Z" fill="#0A0909"/>
</svg>
